<?xml version="1.0" encoding="UTF-8" standalone="no"?>
<!-- Created with Inkscape (http://www.inkscape.org/) -->

<svg
   xmlns:dc="http://purl.org/dc/elements/1.1/"
   xmlns:cc="http://creativecommons.org/ns#"
   xmlns:rdf="http://www.w3.org/1999/02/22-rdf-syntax-ns#"
   xmlns:svg="http://www.w3.org/2000/svg"
   xmlns="http://www.w3.org/2000/svg"
   xmlns:sodipodi="http://sodipodi.sourceforge.net/DTD/sodipodi-0.dtd"
   xmlns:inkscape="http://www.inkscape.org/namespaces/inkscape"
   width="400"
   height="400"
   id="svg6386"
   version="1.1"
   inkscape:version="0.48.4 r9939"
   sodipodi:docname="Coal power plant.svg">
  <title
     id="title9459">Coal power plant</title>
  <defs
     id="defs6388" />
  <sodipodi:namedview
     id="base"
     pagecolor="#ffffff"
     bordercolor="#666666"
     borderopacity="1.0"
     inkscape:pageopacity="0.0"
     inkscape:pageshadow="2"
     inkscape:zoom="0.61"
     inkscape:cx="200"
     inkscape:cy="200"
     inkscape:document-units="px"
     inkscape:current-layer="layer1"
     showgrid="false"
     inkscape:window-width="944"
     inkscape:window-height="1041"
     inkscape:window-x="0"
     inkscape:window-y="0"
     inkscape:window-maximized="0" />
  <metadata
     id="metadata6391">
    <rdf:RDF>
      <cc:Work
         rdf:about="">
        <dc:format>image/svg+xml</dc:format>
        <dc:type
           rdf:resource="http://purl.org/dc/dcmitype/StillImage" />
        <dc:title>Coal power plant</dc:title>
        <dc:date>2017-03-19</dc:date>
        <dc:creator>
          <cc:Agent>
            <dc:title>m1981</dc:title>
          </cc:Agent>
        </dc:creator>
        <dc:rights>
          <cc:Agent>
            <dc:title>Public domain</dc:title>
          </cc:Agent>
        </dc:rights>
        <dc:publisher>
          <cc:Agent>
            <dc:title>Inkscape</dc:title>
          </cc:Agent>
        </dc:publisher>
        <dc:subject>
          <rdf:Bag>
            <rdf:li>icon</rdf:li>
            <rdf:li>coal</rdf:li>
            <rdf:li>plant</rdf:li>
            <rdf:li>fossil</rdf:li>
            <rdf:li>mineral</rdf:li>
            <rdf:li>pollution</rdf:li>
            <rdf:li>smoke</rdf:li>
            <rdf:li>carbon</rdf:li>
            <rdf:li>energy</rdf:li>
            <rdf:li>power</rdf:li>
            <rdf:li></rdf:li>
          </rdf:Bag>
        </dc:subject>
        <cc:license
           rdf:resource="" />
      </cc:Work>
    </rdf:RDF>
  </metadata>
  <g
     inkscape:label="Calque 1"
     inkscape:groupmode="layer"
     id="layer1"
     transform="translate(0,-652.36218)">
    <path
       style="font-size:medium;font-style:normal;font-variant:normal;font-weight:normal;font-stretch:normal;text-indent:0;text-align:start;text-decoration:none;line-height:normal;letter-spacing:normal;word-spacing:normal;text-transform:none;direction:ltr;block-progression:tb;writing-mode:lr-tb;text-anchor:start;baseline-shift:baseline;color:#000000;fill:#4d4d4d;fill-opacity:1;stroke:none;stroke-width:20;marker:none;visibility:visible;display:inline;overflow:visible;enable-background:accumulate;font-family:Sans;-inkscape-font-specification:Sans"
       d="m 113.13968,696.12687 c -16.703732,0 -30.415572,12.6524 -33.031252,28.9376 -2.21542,-0.3287 -4.48687,-0.5313 -6.78125,-0.5313 -11.59524,0 -22.24048,4.3518 -30.40625,11.5313 -2.12781,1.6756 -2.44455,5.1846 -0.65625,7.2187 1.78831,2.0341 5.31558,2.1769 7.25,0.2813 6.43883,-5.6611 14.70374,-9.0313 23.8125,-9.0313 3.41451,0 6.7227,0.4826 9.84375,1.375 1.48257,0.4238 3.17558,0.1165 4.40625,-0.8125 1.23067,-0.929 1.97017,-2.458 1.96875,-4 l 0,-0.4688 c 0,-13.6464 10.608522,-24.5 23.593752,-24.5 8.88212,0 16.65047,5.1169 20.6875,12.6876 1.05669,1.9766 3.55551,3.0554 5.71875,2.4687 3.4936,-0.9547 7.10039,-1.5 10.84375,-1.5 23.41416,0 42.46875,19.5693 42.46875,43.9687 0,5.3054 -0.90709,10.3768 -2.5625,15.06261 -0.88319,2.4724 0.58771,5.5293 3.0625,6.4062 2.47479,0.8768 5.50456,-0.5855 6.375,-3.0625 2.02929,-5.74421 3.125,-11.96431 3.125,-18.40631 0,-29.6452 -23.47151,-53.9687 -52.46875,-53.9687 -3.36275,0 -6.58577,0.4678 -9.75,1.0937 -6.06717,-8.8689 -16.12164,-14.75 -27.5,-14.75 z m 5.9375,33.0626 c -9.64375,0 -17.5625,7.92 -17.5625,17.5624 -0.0373,2.6415 2.3582,5.0626 5,5.0626 2.6418,0 5.03732,-2.4211 5,-5.0626 0,-4.2242 3.32797,-7.5624 7.5625,-7.5624 2.89924,0 5.37443,1.6084 6.65625,3.9374 1.07076,1.9294 3.52366,2.9729 5.65625,2.4063 1.31397,-0.3479 2.65673,-0.5313 4.0625,-0.5313 8.82035,0 15.875,7.0687 15.875,15.875 0,6.9146 -4.38437,12.716 -10.5,14.9063 -2.55865,0.8073 -4.0936,3.91211 -3.1875,6.43751 0.90611,2.5254 4.07423,3.9722 6.5625,2.9688 9.99703,-3.5803 17.125,-13.14521 17.125,-24.31261 0,-14.2225 -11.64729,-25.875 -25.875,-25.875 -1.07377,0 -2.05701,0.2774 -3.09375,0.4063 -3.23274,-3.7773 -7.95958,-6.2187 -13.28125,-6.2187 z m -39.437502,21.125 c -0.4306,-0.014 -0.87542,0.011 -1.3125,0.031 -4.79954,0.225 -9.01895,2.5183 -11.875,5.9688 -0.88116,-0.057 -1.7199,-0.2297 -2.625,-0.1876 -13.00067,0.6092 -23.32119,11.4871 -22.71875,24.34381 0.12273,2.618 2.63201,4.8727 5.25,4.75 2.61799,-0.1227 4.87273,-2.6008 4.75,-5.2188 -0.34146,-7.28681 5.43367,-13.54281 13.1875,-13.90621 1.23465,-0.058 2.42549,0.07 3.59375,0.3125 2.13434,0.4355 4.49154,-0.7095 5.46875,-2.6563 0.95184,-1.88 2.95581,-3.3213 5.4375,-3.4374 3.58687,-0.1681 6.38717,2.3942 6.59375,5.625 0.002,0.034 0.0299,0.06 0.0312,0.094 0.001,0.027 9.1e-4,0.121 0,0.094 0.0539,1.5333 0.8721,3.0208 2.125,3.9063 1.2529,0.8855 2.91169,1.1485 4.375,0.6875 0.98277,-0.3145 2.0696,-0.5116 3.15625,-0.5625 6.531432,-0.3061 11.776612,4.4613 12.062502,10.56251 0.12273,2.618 2.63201,4.8727 5.25,4.75 2.61799,-0.1227 4.87273,-2.6008 4.75,-5.2188 -0.54637,-11.65991 -10.7631,-20.61391 -22.531252,-20.06241 -0.16342,0.01 -0.30626,0.082 -0.46875,0.094 -2.40387,-5.7228 -8.04107,-9.7592 -14.5,-9.9687 z m -28.75,49.28121 c -2.61792,3e-4 -5.21135,1.0552 -7.0625,2.9062 -1.85116,1.8512 -2.93724,4.4759 -2.9375,7.0938 l 0,30 c 0.01,4.8222 3.99504,9.3182 8.78125,9.9062 l -8.78125,148.5 c -0.14359,2.50842 0.70063,5.04142 2.3125,6.96882 1.61186,1.9273 3.97448,3.2289 6.46875,3.5312 0.26421,0.039 0.86634,0.094 1.21875,0.094 l 125.375002,0 c 2.61792,-3e-4 4.99974,-2.3821 5,-5 l 0,-27.31252 c -2.6e-4,-2.6179 -2.38208,-4.9997 -5,-5 l -5,0 0,-6.1563 c 0,-17.2691 -14.07446,-31.3124 -31.34375,-31.3124 l -31.4375,0 c -0.16653,-0.01 -0.33347,-0.01 -0.5,0 -2.61799,0.1308 -4.8809,2.632 -4.75,5.25 0.1309,2.6179 2.63201,4.8808 5.25,4.75 l 31.4375,0 c 11.90005,0 21.34375,9.4125 21.34375,21.3124 l 0,6.1563 -9.03125,0 0,-3.9063 c 0,-8.1191 -6.69304,-14.8124 -14.8125,-14.8124 l -27.90625,0 c -0.16653,-0.01 -0.33347,-0.01 -0.5,0 -2.61799,0.1308 -4.8809,2.632 -4.75,5.25 0.1309,2.6179 2.63201,4.8808 5.25,4.75 l 27.90625,0 c 2.7576,0 4.8125,2.0553 4.8125,4.8124 l 0,3.9063 -25.74378,0 c -2.61792,3e-4 -4.99974,2.3821 -5,5 l 0,22.3125 -12.537472,0 -5.25,-88.1875 24.375002,-23.5625 0,27.9062 c 0.0187,3.8878 2.54373,7.6431 6.125,9.1563 3.58127,1.5131 8.01185,0.6966 10.8125,-2 l 36.25,-35.0937 0,27.9374 c 0.0187,3.8878 2.54373,7.6431 6.125,9.1563 3.58127,1.5131 8.01185,0.6966 10.8125,-2 l 36.21875,-35.0625 0,27.9062 c 0.0187,3.8878 2.54373,7.6431 6.125,9.1563 3.58127,1.5131 8.01185,0.6966 10.8125,-2 l 36.21875,-35.0625 0,27.9062 c -0.0374,2.6416 1.0202,5.2751 2.875,7.1563 1.8548,1.8812 4.48317,2.9687 7.125,2.9687 2.64183,0 5.2702,-1.0875 7.125,-2.9687 1.8548,-1.8812 2.91236,-4.5147 2.875,-7.1563 l 0,-51.4687 c 0.005,-3.9052 -2.49779,-7.6956 -6.09375,-9.2187 -3.59596,-1.5231 -8.07355,-0.6896 -10.875,2.0312 l -36.1875,35.0312 0,-27.8437 c 0.005,-3.9052 -2.49779,-7.6956 -6.09375,-9.2187 -3.59596,-1.5231 -8.07355,-0.6896 -10.875,2.0312 l -36.1875,35.0312 0,-27.8437 c 0.005,-3.9052 -2.49779,-7.6956 -6.09375,-9.2187 -3.59596,-1.5231 -8.07355,-0.6896 -10.875,2.0312 l -36.21875,35.0625 0,-27.875 c 0.005,-3.9052 -2.49779,-7.6956 -6.09375,-9.2187 -3.59596,-1.5231 -8.07355,-0.6896 -10.875,2.0312 l -19.46875,18.8438 -1.5,-25.4376 c 4.7972,-0.574 8.80094,-5.0748 8.8125,-9.9062 l 0,-30 c -2.6e-4,-2.6179 -1.05509,-5.2426 -2.90625,-7.0938 -1.85115,-1.851 -4.47583,-2.9059 -7.093752,-2.9062 z m 10,20 28.0625,0 0,10 -28.0625,0 z m 9.40625,20 9.21875,0 3.40625,57.5938 0.0312,0.6562 c 0.006,0.1669 0.0168,0.3336 0.0312,0.5 l 5.96875,100.25 -28.0625,0 z m 184.500002,91.1884 c -0.16695,-0.01 -0.33337,0.02 -0.5,0.031 -0.95676,0.069 -1.89132,0.4212 -2.65625,1 l -23.8125,17.9688 c -0.87777,0.6636 -1.52614,1.625 -1.8125,2.6875 l -5.59375,21.0313 -16.84375,27.53122 c -1.37989,2.2337 -0.58347,5.5049 1.65625,6.875 0.62308,0.3812 1.34265,0.5507 2.0625,0.625 0.30257,0.031 0.63284,0.062 0.875,0.062 l 50.21875,0 c 2.64183,0 5.0625,-2.3582 5.0625,-5 0,-2.6418 -2.42093,-5.03742 -5.0625,-5.00002 l -41.59375,0 12.53125,-20.5 c 0.25163,-0.4173 0.44181,-0.8717 0.5625,-1.3437 l 5.34375,-20.0313 20.8125,-15.6875 30.96875,3.9062 c 0.64574,0.085 1.30805,0.042 1.9375,-0.125 l 10.4375,-2.8124 10.4375,16.3124 -14.375,8.0626 -15.5,-3.375 c -0.85555,-0.1864 -1.76009,-0.1428 -2.59375,0.125 l -15.5625,5.0631 c -1.42535,0.472 -2.60984,1.621 -3.125,3.0313 l -3.15625,8.6875 c -0.93542,2.5747 0.3003,5.7834 2.875,6.7188 2.5747,0.9354 5.75393,-0.6768 6.5,-3.3126 l 2.3125,-6.375 11.96875,-3.9062 16,3.5312 c 1.18896,0.2607 2.4716,0.068 3.53125,-0.5312 l 18.90625,-10.625 6.125,1.4062 6.59375,22.0938 c 0.27814,0.9197 0.83149,1.7514 1.5625,2.375 l 18.81599,16.02032 c 2.08437,1.7746 5.53731,1.7714 7.3125,-0.3125 1.77518,-2.0839 1.3617,-5.6596 -0.84375,-7.28122 l -17.69099,-15.0828 -7,-23.4688 c -0.50204,-1.679 -1.94955,-3.0399 -3.65625,-3.4375 l -8.84375,-2.0313 -14.1875,-22.1562 c -1.13707,-1.7678 -3.46969,-2.6691 -5.5,-2.125 l -13,3.5 -32,-4.0625 c -0.16571,-0.021 -0.33305,-0.057 -0.5,-0.062 z m -133.30628,50.4991 49.77503,0 0,17.3125 -49.77503,0 z"
       id="path7715"
       inkscape:connector-curvature="0"
       sodipodi:nodetypes="scscscscscssccsscccsscsscscsccsscscsscscccccsccccccccscccsccccccccccccscccccssccscssccssccscssccccccccccccccccccccsssccscccscccscccsccccccccccccccsccccccscccccccsccsccccccccccccccccsccccccccccscccccccccsccccccc" />
  </g>
</svg>
